# xmcd
#
# Track frame offsets: 
#        150
#        14861
#        26014
#        37340
#        47613
#        57693
#        68500
#        79555
#        90943
#        102840
#        114803
#        129114
#        142315
#        155377
#        164229
#        178095
#        192656
#        205643
#        218883
#        231735
#        244844
#        259412
#        273188
#        287712
#        301422
#
# Disc length: 4156 seconds
#
# Revision: 1
# Processed by: cddbd v1.5.2PL0 Copyright (c) Steve Scherf et al.
# Submitted via: ExactAudioCopy v0.95b3
#
DISCID=78103a19
DTITLE=Frank Sinatra - Deja Vu Definitive Gold
DYEAR=2006
DGENRE=Jazz
TTITLE0=Just One Of Those Things
TTITLE1=I'm Gonna Sit Right Down And Write Myself A Letter
TTITLE2=Sunday
TTITLE3=Wrap Your Troubles In Dreams
TTITLE4=Taking A Chance On Love
TTITLE5=Jeepers Creepers
TTITLE6=Get Happy
TTITLE7=My Funny Valentine
TTITLE8=The Girl Next Door
TTITLE9=A Foggy Day
TTITLE10=Like Someone In Love
TTITLE11=I Get A Kick Out Of You
TTITLE12=Little Girl Blue
TTITLE13=They Can't Take That Away From Me
TTITLE14=Violets For Your Furs
TTITLE15=Old School Teacher
TTITLE16=If You Please
TTITLE17=You'll Know When It Happens
TTITLE18=It's All Up To You
TTITLE19=My Love For You
TTITLE20=Meet Me At  The Copa
TTITLE21=All Through The Day
TTITLE22=Home On The Range
TTITLE23=Bop Goes My Heart
TTITLE24=The Old Master Painter
EXTD=YEAR: 2006
EXTT0=
EXTT1=
EXTT2=
EXTT3=
EXTT4=
EXTT5=
EXTT6=
EXTT7=
EXTT8=
EXTT9=
EXTT10=
EXTT11=
EXTT12=
EXTT13=
EXTT14=
EXTT15=
EXTT16=
EXTT17=
EXTT18=
EXTT19=
EXTT20=
EXTT21=
EXTT22=
EXTT23=
EXTT24=
PLAYORDER=
